<?xml version="1.0" encoding="UTF-8" standalone="no"?>
<svg
   xmlns:dc="http://purl.org/dc/elements/1.1/"
   xmlns:cc="http://creativecommons.org/ns#"
   xmlns:rdf="http://www.w3.org/1999/02/22-rdf-syntax-ns#"
   xmlns:svg="http://www.w3.org/2000/svg"
   xmlns="http://www.w3.org/2000/svg"
   xmlns:sodipodi="http://sodipodi.sourceforge.net/DTD/sodipodi-0.dtd"
   xmlns:inkscape="http://www.inkscape.org/namespaces/inkscape"
   width="902.80975"
   height="788.93616"
   viewBox="-246.56252 -778.63269 902.80975 788.93613"
   id="svg4022"
   version="1.1"
   inkscape:version="0.91 r13725"
   sodipodi:docname="gaLangDependencies.svg">
  <metadata
     id="metadata4668">
    <rdf:RDF>
      <cc:Work
         rdf:about="">
        <dc:format>image/svg+xml</dc:format>
        <dc:type
           rdf:resource="http://purl.org/dc/dcmitype/StillImage" />
        <dc:title>Neo4j Graph Visualization</dc:title>
      </cc:Work>
    </rdf:RDF>
  </metadata>
  <defs
     id="defs4666" />
  <sodipodi:namedview
     pagecolor="#ffffff"
     bordercolor="#666666"
     borderopacity="1"
     objecttolerance="10"
     gridtolerance="10"
     guidetolerance="10"
     inkscape:pageopacity="0"
     inkscape:pageshadow="2"
     inkscape:window-width="1920"
     inkscape:window-height="1176"
     id="namedview4664"
     showgrid="false"
     inkscape:zoom="0.82933384"
     inkscape:cx="451.40485"
     inkscape:cy="380.2938"
     inkscape:window-x="3840"
     inkscape:window-y="24"
     inkscape:window-maximized="1"
     inkscape:current-layer="svg4022"
     fit-margin-top="0"
     fit-margin-left="0"
     fit-margin-right="0"
     fit-margin-bottom="0" />
  <title
     id="title4024">Neo4j Graph Visualization</title>
  <desc
     id="desc4026">Created using Neo4j (http://www.neo4j.com/)</desc>
  <g
     id="g4986"
     transform="translate(-2.9999953,-3.0000004)">
    <g
       class="relationship"
       transform="matrix(-0.41203678,0.91116722,-0.91116722,-0.41203678,202.63296,-561.30903)"
       id="g4126">
      <path
         class="outline"
         d="m 25,0.5 52.422961,0 0,-1 L 25,-0.5 Z m 112.42296,0 52.42296,0 0,3 7,-3.5 -7,-3.5 0,3 -52.42296,0 z"
         id="path4128"
         inkscape:connector-curvature="0"
         style="fill:#a5abb6;stroke:none" />
      <text
         pointer-events="none"
         font-size="8px"
         x="107.42296"
         y="3"
         transform="matrix(-1,0,0,-1,214.84592,0)"
         id="text4130"
         style="font-size:8px;font-family:sans-serif;text-anchor:middle;fill:#000000">DEPENDS_ON</text>
    </g>
    <g
       class="relationship"
       transform="matrix(0.98263408,-0.18555397,0.18555397,0.98263408,-217.56252,-297.08443)"
       id="g4132">
      <path
         class="outline"
         d="m 25,0.5 108.79869,0 0,-1 L 25,-0.5 Z m 168.79869,0 108.7987,0 0,3 7,-3.5 -7,-3.5 0,3 -108.7987,0 z"
         id="path4134"
         inkscape:connector-curvature="0"
         style="fill:#a5abb6;stroke:none" />
      <text
         pointer-events="none"
         font-size="8px"
         x="163.79869"
         y="3"
         id="text4136"
         style="font-size:8px;font-family:sans-serif;text-anchor:middle;fill:#000000">DEPENDS_ON</text>
    </g>
    <g
       class="relationship"
       transform="matrix(-0.95559883,0.29467081,-0.29467081,-0.95559883,295.32424,-415.93982)"
       id="g4138">
      <path
         class="outline"
         d="m 25,0.5 37.827014,0 0,-1 L 25,-0.5 Z m 97.82701,0 37.82702,0 0,3 7,-3.5 -7,-3.5 0,3 -37.82702,0 z"
         id="path4140"
         inkscape:connector-curvature="0"
         style="fill:#a5abb6;stroke:none" />
      <text
         pointer-events="none"
         font-size="8px"
         x="92.827011"
         y="3"
         transform="matrix(-1,0,0,-1,185.65403,0)"
         id="text4142"
         style="font-size:8px;font-family:sans-serif;text-anchor:middle;fill:#000000">DEPENDS_ON</text>
    </g>
    <g
       class="relationship"
       transform="matrix(-0.91244055,-0.40920929,0.40920929,-0.91244055,446.14711,-208.96486)"
       id="g4144">
      <path
         class="outline"
         d="m 25,0.5 125.03132,0 0,-1 L 25,-0.5 Z m 185.03132,0 125.03131,0 0,3 7,-3.5 -7,-3.5 0,3 -125.03131,0 z"
         id="path4146"
         inkscape:connector-curvature="0"
         style="fill:#a5abb6;stroke:none" />
      <text
         pointer-events="none"
         font-size="8px"
         x="180.03131"
         y="3"
         transform="matrix(-1,0,0,-1,360.06263,0)"
         id="text4148"
         style="font-size:8px;font-family:sans-serif;text-anchor:middle;fill:#000000">DEPENDS_ON</text>
    </g>
    <g
       class="relationship"
       transform="matrix(0.41872813,0.90811164,-0.90811164,0.41872813,-68.817004,-749.63269)"
       id="g4150">
      <path
         class="outline"
         d="m 25,0.5 156.48589,0 0,-1 L 25,-0.5 Z m 216.48589,0 156.4859,0 0,3 7,-3.5 -7,-3.5 0,3 -156.4859,0 z"
         id="path4152"
         inkscape:connector-curvature="0"
         style="fill:#a5abb6;stroke:none" />
      <text
         pointer-events="none"
         font-size="8px"
         x="211.4859"
         y="3"
         id="text4154"
         style="font-size:8px;font-family:sans-serif;text-anchor:middle;fill:#000000">DEPENDS_ON</text>
    </g>
    <g
       class="relationship"
       transform="matrix(-0.50325197,-0.86413972,0.86413972,-0.50325197,268.09492,-89.805922)"
       id="g4156">
      <path
         class="outline"
         d="m 25,0.5 97.35696,0 0,-1 L 25,-0.5 Z m 157.35696,0 97.35696,0 0,3 7,-3.5 -7,-3.5 0,3 -97.35696,0 z"
         id="path4158"
         inkscape:connector-curvature="0"
         style="fill:#a5abb6;stroke:none" />
      <text
         pointer-events="none"
         font-size="8px"
         x="152.35696"
         y="3"
         transform="matrix(-1,0,0,-1,304.71392,0)"
         id="text4160"
         style="font-size:8px;font-family:sans-serif;text-anchor:middle;fill:#000000">DEPENDS_ON</text>
    </g>
    <g
       class="relationship"
       transform="matrix(0.86478977,0.50213409,-0.50213409,0.86478977,-108.6444,-486.8355)"
       id="g4162">
      <path
         class="outline"
         d="m 25,0.5 68.622616,0 0,-1 L 25,-0.5 Z m 128.62262,0 68.62261,0 0,3 7,-3.5 -7,-3.5 0,3 -68.62261,0 z"
         id="path4164"
         inkscape:connector-curvature="0"
         style="fill:#a5abb6;stroke:none" />
      <text
         pointer-events="none"
         font-size="8px"
         x="123.62262"
         y="3"
         id="text4166"
         style="font-size:8px;font-family:sans-serif;text-anchor:middle;fill:#000000">DEPENDS_ON</text>
    </g>
    <g
       class="relationship"
       transform="matrix(-0.6137865,0.78947206,-0.78947206,-0.6137865,389.08663,-716.56586)"
       id="g4168">
      <path
         class="outline"
         d="m 25,0.5 167.85098,0 0,-1 L 25,-0.5 Z m 227.85098,0 167.85099,0 0,3 7,-3.5 -7,-3.5 0,3 -167.85099,0 z"
         id="path4170"
         inkscape:connector-curvature="0"
         style="fill:#a5abb6;stroke:none" />
      <text
         pointer-events="none"
         font-size="8px"
         x="222.85098"
         y="3"
         transform="matrix(-1,0,0,-1,445.70197,0)"
         id="text4172"
         style="font-size:8px;font-family:sans-serif;text-anchor:middle;fill:#000000">DEPENDS_ON</text>
    </g>
    <g
       class="relationship"
       transform="matrix(0.73364179,-0.6795364,0.6795364,0.73364179,-119.9464,-145.04824)"
       id="g4174">
      <path
         class="outline"
         d="m 25,0.5 99.0501,0 0,-1 L 25,-0.5 Z m 159.0501,0 99.05011,0 0,3 7,-3.5 -7,-3.5 0,3 -99.05011,0 z"
         id="path4176"
         inkscape:connector-curvature="0"
         style="fill:#a5abb6;stroke:none" />
      <text
         pointer-events="none"
         font-size="8px"
         x="154.05011"
         y="3"
         id="text4178"
         style="font-size:8px;font-family:sans-serif;text-anchor:middle;fill:#000000">DEPENDS_ON</text>
    </g>
    <g
       class="relationship"
       transform="matrix(-0.72560674,0.68810963,-0.68810963,-0.72560674,297.98634,-536.28107)"
       id="g4180">
      <path
         class="outline"
         d="m 25,0.5 70.193718,0 0,-1 L 25,-0.5 Z m 130.19372,0 70.19372,0 0,3 7,-3.5 -7,-3.5 0,3 -70.19372,0 z"
         id="path4182"
         inkscape:connector-curvature="0"
         style="fill:#a5abb6;stroke:none" />
      <text
         pointer-events="none"
         font-size="8px"
         x="125.19372"
         y="3"
         transform="matrix(-1,0,0,-1,250.38744,0)"
         id="text4184"
         style="font-size:8px;font-family:sans-serif;text-anchor:middle;fill:#000000">DEPENDS_ON</text>
    </g>
    <g
       class="relationship"
       transform="matrix(0.28914928,-0.95728402,0.95728402,0.28914928,48.723379,-152.24911)"
       id="g4186">
      <path
         class="outline"
         d="m 25,0.5 49.577219,0 0,-1 L 25,-0.5 Z m 109.57722,0 49.57722,0 0,3 7,-3.5 -7,-3.5 0,3 -49.57722,0 z"
         id="path4188"
         inkscape:connector-curvature="0"
         style="fill:#a5abb6;stroke:none" />
      <text
         pointer-events="none"
         font-size="8px"
         x="104.57722"
         y="3"
         id="text4190"
         style="font-size:8px;font-family:sans-serif;text-anchor:middle;fill:#000000">DEPENDS_ON</text>
    </g>
    <g
       class="relationship"
       transform="matrix(-0.97523677,-0.22116339,0.22116339,-0.97523677,487.40456,-273.86045)"
       id="g4192">
      <path
         class="outline"
         d="m 25,0.5 134.36613,0 0,-1 L 25,-0.5 Z m 194.36613,0 134.36613,0 0,3 7,-3.5 -7,-3.5 0,3 -134.36613,0 z"
         id="path4194"
         inkscape:connector-curvature="0"
         style="fill:#a5abb6;stroke:none" />
      <text
         pointer-events="none"
         font-size="8px"
         x="189.36613"
         y="3"
         transform="matrix(-1,0,0,-1,378.73226,0)"
         id="text4196"
         style="font-size:8px;font-family:sans-serif;text-anchor:middle;fill:#000000">DEPENDS_ON</text>
    </g>
    <g
       class="relationship"
       transform="matrix(-0.10847284,0.99409941,-0.99409941,-0.10847284,134.8309,-575.51323)"
       id="g4198">
      <path
         class="outline"
         d="m 25,0.5 50.313529,0 0,-1 L 25,-0.5 Z m 110.31353,0 50.31353,0 0,3 7,-3.5 -7,-3.5 0,3 -50.31353,0 z"
         id="path4200"
         inkscape:connector-curvature="0"
         style="fill:#a5abb6;stroke:none" />
      <text
         pointer-events="none"
         font-size="8px"
         x="105.31353"
         y="3"
         transform="matrix(-1,0,0,-1,210.62706,0)"
         id="text4202"
         style="font-size:8px;font-family:sans-serif;text-anchor:middle;fill:#000000">DEPENDS_ON</text>
    </g>
    <g
       class="relationship"
       transform="matrix(-0.08816462,-0.99610592,0.99610592,-0.08816462,133.00619,-113.07278)"
       id="g4204">
      <path
         class="outline"
         d="m 25,0.5 65.029796,0 0,-1 L 25,-0.5 Z m 125.0298,0 65.02979,0 0,3 7,-3.5 -7,-3.5 0,3 -65.02979,0 z"
         id="path4206"
         inkscape:connector-curvature="0"
         style="fill:#a5abb6;stroke:none" />
      <text
         pointer-events="none"
         font-size="8px"
         x="120.02979"
         y="3"
         transform="matrix(-1,0,0,-1,240.05959,0)"
         id="text4208"
         style="font-size:8px;font-family:sans-serif;text-anchor:middle;fill:#000000">DEPENDS_ON</text>
    </g>
    <g
       class="relationship"
       transform="matrix(-0.99997652,-0.00685258,0.00685258,-0.99997652,401.66803,-357.17996)"
       id="g4210">
      <path
         class="outline"
         d="m 25,0.5 86.72528,0 0,-1 L 25,-0.5 Z m 146.72528,0 86.72529,0 0,3 7,-3.5 -7,-3.5 0,3 -86.72529,0 z"
         id="path4212"
         inkscape:connector-curvature="0"
         style="fill:#a5abb6;stroke:none" />
      <text
         pointer-events="none"
         font-size="8px"
         x="141.72528"
         y="3"
         transform="matrix(-1,0,0,-1,283.45057,0)"
         id="text4214"
         style="font-size:8px;font-family:sans-serif;text-anchor:middle;fill:#000000">DEPENDS_ON</text>
    </g>
    <g
       class="relationship"
       transform="matrix(-0.83318412,-0.55299569,0.55299569,-0.83318412,633.24721,-12.696546)"
       id="g4216">
      <path
         class="outline"
         d="m 25,0.5 254.76985,0 0,-1 L 25,-0.5 Z m 314.76985,0 254.76986,0 0,3 7,-3.5 -7,-3.5 0,3 -254.76986,0 z"
         id="path4218"
         inkscape:connector-curvature="0"
         style="fill:#a5abb6;stroke:none" />
      <text
         pointer-events="none"
         font-size="8px"
         x="309.76987"
         y="3"
         transform="matrix(-1,0,0,-1,619.53971,0)"
         id="text4220"
         style="font-size:8px;font-family:sans-serif;text-anchor:middle;fill:#000000">DEPENDS_ON</text>
    </g>
    <g
       class="relationship"
       transform="matrix(0.76846697,-0.63988946,0.63988946,0.76846697,202.63296,-561.30903)"
       id="g4306">
      <path
         class="outline"
         d="m 25,0.5 62.815349,0 0,-1 L 25,-0.5 Z m 122.81535,0 62.81535,0 0,3 7,-3.5 -7,-3.5 0,3 -62.81535,0 z"
         id="path4308"
         inkscape:connector-curvature="0"
         style="fill:#a5abb6;stroke:none" />
      <text
         pointer-events="none"
         font-size="8px"
         x="117.81535"
         y="3"
         id="text4310"
         style="font-size:8px;font-family:sans-serif;text-anchor:middle;fill:#000000">DEPENDS_ON</text>
    </g>
    <g
       class="relationship"
       transform="matrix(0.29774482,-0.9546455,0.9546455,0.29774482,295.32424,-415.93982)"
       id="g4312">
      <path
         class="outline"
         d="m 25,0.5 98.95428,0 0,-1 L 25,-0.5 Z m 158.95428,0 98.95428,0 0,3 7,-3.5 -7,-3.5 0,3 -98.95428,0 z"
         id="path4314"
         inkscape:connector-curvature="0"
         style="fill:#a5abb6;stroke:none" />
      <text
         pointer-events="none"
         font-size="8px"
         x="153.95428"
         y="3"
         id="text4316"
         style="font-size:8px;font-family:sans-serif;text-anchor:middle;fill:#000000">DEPENDS_ON</text>
    </g>
    <g
       class="relationship"
       transform="matrix(0.99740276,0.07202596,-0.07202596,0.99740276,-68.817004,-749.63269)"
       id="g4318">
      <path
         class="outline"
         d="m 25,0.5 171.04801,0 0,-1 L 25,-0.5 Z m 231.04801,0 171.04801,0 0,3 7,-3.5 -7,-3.5 0,3 -171.04801,0 z"
         id="path4320"
         inkscape:connector-curvature="0"
         style="fill:#a5abb6;stroke:none" />
      <text
         pointer-events="none"
         font-size="8px"
         x="226.048"
         y="3"
         id="text4322"
         style="font-size:8px;font-family:sans-serif;text-anchor:middle;fill:#000000">DEPENDS_ON</text>
    </g>
    <g
       class="relationship"
       transform="matrix(0.14984083,-0.98871013,0.98871013,0.14984083,-108.6444,-486.8355)"
       id="g4324">
      <path
         class="outline"
         d="m 25,0.5 74.399006,0 0,-1 L 25,-0.5 Z m 134.39901,0 74.399,0 0,3 7,-3.5 -7,-3.5 0,3 -74.399,0 z"
         id="path4326"
         inkscape:connector-curvature="0"
         style="fill:#a5abb6;stroke:none" />
      <text
         pointer-events="none"
         font-size="8px"
         x="129.399"
         y="3"
         id="text4328"
         style="font-size:8px;font-family:sans-serif;text-anchor:middle;fill:#000000">DEPENDS_ON</text>
    </g>
    <g
       class="relationship"
       transform="matrix(0.6795364,0.73364179,-0.73364179,0.6795364,-119.9464,-145.04824)"
       id="g4330">
      <path
         class="outline"
         d="m 6.953439,24.018736 10.352762,38.637033 a 17.916698,17.916698 0 1 1 -34.612402,0 l 8.5410286,-31.875552 3.8637033,1.035276 -1.569007,-7.667347 -5.1924739,5.855614 3.8637035,1.035276 -8.5410285,31.875552 a 16.916698,16.916698 0 1 0 32.68055,0 L 5.9875132,24.277555 Z"
         id="path4332"
         inkscape:connector-curvature="0"
         style="fill:#a5abb6;stroke:none" />
      <text
         pointer-events="none"
         font-size="8px"
         x="0"
         y="94.209648"
         id="text4334"
         style="font-size:8px;font-family:sans-serif;text-anchor:middle;fill:#000000">DEPENDS…</text>
    </g>
    <g
       class="relationship"
       transform="matrix(0.50100578,0.86544394,-0.86544394,0.50100578,297.98634,-536.28107)"
       id="g4336">
      <path
         class="outline"
         d="m 25,0.5 44.973548,0 0,-1 L 25,-0.5 Z m 104.97355,0 44.97355,0 0,3 7,-3.5 -7,-3.5 0,3 -44.97355,0 z"
         id="path4338"
         inkscape:connector-curvature="0"
         style="fill:#a5abb6;stroke:none" />
      <text
         pointer-events="none"
         font-size="8px"
         x="99.973549"
         y="3"
         id="text4340"
         style="font-size:8px;font-family:sans-serif;text-anchor:middle;fill:#000000">DEPENDS_ON</text>
    </g>
    <g
       class="relationship"
       transform="matrix(0.45100335,-0.89252225,0.89252225,0.45100335,297.98634,-536.28107)"
       id="g4342">
      <path
         class="outline"
         d="m 25,0.5 42.497361,0 0,-1 L 25,-0.5 Z m 102.49736,0 42.49736,0 0,3 7,-3.5 -7,-3.5 0,3 -42.49736,0 z"
         id="path4344"
         inkscape:connector-curvature="0"
         style="fill:#a5abb6;stroke:none" />
      <text
         pointer-events="none"
         font-size="8px"
         x="97.49736"
         y="3"
         id="text4346"
         style="font-size:8px;font-family:sans-serif;text-anchor:middle;fill:#000000">DEPENDS_ON</text>
    </g>
    <g
       class="relationship"
       transform="matrix(-0.5365076,0.84389549,-0.84389549,-0.5365076,487.40456,-273.86045)"
       id="g4348">
      <path
         class="outline"
         d="m 25,0.5 9.950014,0 0,-1 L 25,-0.5 Z m 9.950014,0 9.950014,0 0,3 7,-3.5 -7,-3.5 0,3 -9.950014,0 z"
         id="path4350"
         inkscape:connector-curvature="0"
         style="fill:#a5abb6;stroke:none" />
      <text
         pointer-events="none"
         font-size="8px"
         x="34.950012"
         y="3"
         transform="matrix(-1,0,0,-1,69.900028,0)"
         id="text4352"
         style="font-size:8px;font-family:sans-serif;text-anchor:middle;fill:#000000" />
    </g>
    <g
       class="relationship"
       transform="matrix(-0.21680215,-0.97621556,0.97621556,-0.21680215,487.40456,-273.86045)"
       id="g4354">
      <path
         class="outline"
         d="m 25,0.5 168.24572,0 0,-1 L 25,-0.5 Z m 228.24572,0 168.24573,0 0,3 7,-3.5 -7,-3.5 0,3 -168.24573,0 z"
         id="path4356"
         inkscape:connector-curvature="0"
         style="fill:#a5abb6;stroke:none" />
      <text
         pointer-events="none"
         font-size="8px"
         x="223.24573"
         y="3"
         transform="matrix(-1,0,0,-1,446.49145,0)"
         id="text4358"
         style="font-size:8px;font-family:sans-serif;text-anchor:middle;fill:#000000">DEPENDS_ON</text>
    </g>
    <g
       class="relationship"
       transform="matrix(-0.76005988,-0.64985305,0.64985305,-0.76005988,134.8309,-575.51323)"
       id="g4360">
      <path
         class="outline"
         d="m 25,0.5 75.46833,0 0,-1 L 25,-0.5 Z m 135.46833,0 75.46833,0 0,3 7,-3.5 -7,-3.5 0,3 -75.46833,0 z"
         id="path4362"
         inkscape:connector-curvature="0"
         style="fill:#a5abb6;stroke:none" />
      <text
         pointer-events="none"
         font-size="8px"
         x="130.46834"
         y="3"
         transform="matrix(-1,0,0,-1,260.93666,0)"
         id="text4364"
         style="font-size:8px;font-family:sans-serif;text-anchor:middle;fill:#000000">DEPENDS_ON</text>
    </g>
    <g
       class="relationship"
       transform="matrix(0.87444994,-0.48511576,0.48511576,0.87444994,134.8309,-575.51323)"
       id="g4366">
      <path
         class="outline"
         d="m 25,0.5 86.88038,0 0,-1 L 25,-0.5 Z m 146.88038,0 86.88038,0 0,3 7,-3.5 -7,-3.5 0,3 -86.88038,0 z"
         id="path4368"
         inkscape:connector-curvature="0"
         style="fill:#a5abb6;stroke:none" />
      <text
         pointer-events="none"
         font-size="8px"
         x="141.88039"
         y="3"
         id="text4370"
         style="font-size:8px;font-family:sans-serif;text-anchor:middle;fill:#000000">DEPENDS_ON</text>
    </g>
    <g
       class="relationship"
       transform="matrix(-0.0349866,-0.99938778,0.99938778,-0.0349866,401.66803,-357.17996)"
       id="g4372">
      <path
         class="outline"
         d="m 25,0.5 121.30303,0 0,-1 L 25,-0.5 Z m 181.30303,0 121.30302,0 0,3 7,-3.5 -7,-3.5 0,3 -121.30302,0 z"
         id="path4374"
         inkscape:connector-curvature="0"
         style="fill:#a5abb6;stroke:none" />
      <text
         pointer-events="none"
         font-size="8px"
         x="176.30302"
         y="3"
         transform="matrix(-1,0,0,-1,352.60605,0)"
         id="text4376"
         style="font-size:8px;font-family:sans-serif;text-anchor:middle;fill:#000000">DEPENDS_ON</text>
    </g>
    <g
       class="relationship"
       transform="matrix(-0.97842255,-0.20661394,0.20661394,-0.97842255,633.24721,-12.696546)"
       id="g4378">
      <path
         class="outline"
         d="m 25,0.5 128.10255,0 0,-1 L 25,-0.5 Z m 188.10255,0 128.10256,0 0,3 7,-3.5 -7,-3.5 0,3 -128.10256,0 z"
         id="path4380"
         inkscape:connector-curvature="0"
         style="fill:#a5abb6;stroke:none" />
      <text
         pointer-events="none"
         font-size="8px"
         x="183.10255"
         y="3"
         transform="matrix(-1,0,0,-1,366.20511,0)"
         id="text4382"
         style="font-size:8px;font-family:sans-serif;text-anchor:middle;fill:#000000">DEPENDS_ON</text>
    </g>
    <g
       class="relationship"
       transform="matrix(-0.327726,-0.94477281,0.94477281,-0.327726,633.24721,-12.696546)"
       id="g4384">
      <path
         class="outline"
         d="m 25,0.5 314.00718,0 0,-1 L 25,-0.5 Z m 374.00718,0 314.00718,0 0,3 7,-3.5 -7,-3.5 0,3 -314.00718,0 z"
         id="path4386"
         inkscape:connector-curvature="0"
         style="fill:#a5abb6;stroke:none" />
      <text
         pointer-events="none"
         font-size="8px"
         x="369.00717"
         y="3"
         transform="matrix(-1,0,0,-1,738.01436,0)"
         id="text4388"
         style="font-size:8px;font-family:sans-serif;text-anchor:middle;fill:#000000">DEPENDS_ON</text>
    </g>
    <g
       class="node"
       transform="translate(202.63296,-561.30903)"
       id="g4528">
      <circle
         class="outline"
         cx="0"
         cy="0"
         r="25"
         id="circle4530"
         style="fill:#f79767;stroke:#f36924;stroke-width:2px" />
      <text
         pointer-events="none"
         dy="1.5625"
         font-size="25"
         id="text4532"
         style="font-size:25px;font-family:sans-serif;text-anchor:middle;fill:#ffffff" />
      <text
         pointer-events="none"
         y="5"
         font-size="10px"
         id="text4534"
         style="font-size:10px;font-family:sans-serif;text-anchor:middle;fill:#ffffff">gaFeat…</text>
    </g>
    <g
       class="node"
       transform="translate(111.22428,-359.1703)"
       id="g4536">
      <circle
         class="outline"
         cx="0"
         cy="0"
         r="25"
         id="circle4538"
         style="fill:#f79767;stroke:#f36924;stroke-width:2px" />
      <text
         pointer-events="none"
         dy="1.5625"
         font-size="25"
         id="text4540"
         style="font-size:25px;font-family:sans-serif;text-anchor:middle;fill:#ffffff" />
      <text
         pointer-events="none"
         y="5"
         font-size="10px"
         id="text4542"
         style="font-size:10px;font-family:sans-serif;text-anchor:middle;fill:#ffffff">gaLang</text>
    </g>
    <g
       class="node"
       transform="translate(-217.56252,-297.08443)"
       id="g4544">
      <circle
         class="outline"
         cx="0"
         cy="0"
         r="25"
         id="circle4546"
         style="fill:#f79767;stroke:#f36924;stroke-width:2px" />
      <text
         pointer-events="none"
         dy="1.5625"
         font-size="25"
         id="text4548"
         style="font-size:25px;font-family:sans-serif;text-anchor:middle;fill:#ffffff" />
      <text
         pointer-events="none"
         y="5"
         font-size="10px"
         id="text4550"
         style="font-size:10px;font-family:sans-serif;text-anchor:middle;fill:#ffffff">gaCatal…</text>
    </g>
    <g
       class="node"
       transform="translate(295.32424,-415.93982)"
       id="g4552">
      <circle
         class="outline"
         cx="0"
         cy="0"
         r="25"
         id="circle4554"
         style="fill:#f79767;stroke:#f36924;stroke-width:2px" />
      <text
         pointer-events="none"
         dy="1.5625"
         font-size="25"
         id="text4556"
         style="font-size:25px;font-family:sans-serif;text-anchor:middle;fill:#ffffff" />
      <text
         pointer-events="none"
         y="5"
         font-size="10px"
         id="text4558"
         style="font-size:10px;font-family:sans-serif;text-anchor:middle;fill:#ffffff">GaMain…</text>
    </g>
    <g
       class="node"
       transform="translate(446.14711,-208.96486)"
       id="g4560">
      <circle
         class="outline"
         cx="0"
         cy="0"
         r="25"
         id="circle4562"
         style="fill:#f79767;stroke:#f36924;stroke-width:2px" />
      <text
         pointer-events="none"
         dy="1.5625"
         font-size="25"
         id="text4564"
         style="font-size:25px;font-family:sans-serif;text-anchor:middle;fill:#ffffff" />
      <text
         pointer-events="none"
         y="5"
         font-size="10px"
         id="text4566"
         style="font-size:10px;font-family:sans-serif;text-anchor:middle;fill:#ffffff">gaWhat…</text>
    </g>
    <g
       class="node"
       transform="translate(-68.817004,-749.63269)"
       id="g4568">
      <circle
         class="outline"
         cx="0"
         cy="0"
         r="25"
         id="circle4570"
         style="fill:#f79767;stroke:#f36924;stroke-width:2px" />
      <text
         pointer-events="none"
         dy="1.5625"
         font-size="25"
         id="text4572"
         style="font-size:25px;font-family:sans-serif;text-anchor:middle;fill:#ffffff" />
      <text
         pointer-events="none"
         y="5"
         font-size="10px"
         id="text4574"
         style="font-size:10px;font-family:sans-serif;text-anchor:middle;fill:#ffffff">gaWms</text>
    </g>
    <g
       class="node"
       transform="translate(268.09492,-89.805922)"
       id="g4576">
      <circle
         class="outline"
         cx="0"
         cy="0"
         r="25"
         id="circle4578"
         style="fill:#f79767;stroke:#f36924;stroke-width:2px" />
      <text
         pointer-events="none"
         dy="1.5625"
         font-size="25"
         id="text4580"
         style="font-size:25px;font-family:sans-serif;text-anchor:middle;fill:#ffffff" />
      <text
         pointer-events="none"
         y="5"
         font-size="10px"
         id="text4582"
         style="font-size:10px;font-family:sans-serif;text-anchor:middle;fill:#ffffff">gaIdent…</text>
    </g>
    <g
       class="node"
       transform="translate(-108.6444,-486.8355)"
       id="g4584">
      <circle
         class="outline"
         cx="0"
         cy="0"
         r="25"
         id="circle4586"
         style="fill:#f79767;stroke:#f36924;stroke-width:2px" />
      <text
         pointer-events="none"
         dy="1.5625"
         font-size="25"
         id="text4588"
         style="font-size:25px;font-family:sans-serif;text-anchor:middle;fill:#ffffff" />
      <text
         pointer-events="none"
         y="5"
         font-size="10px"
         id="text4590"
         style="font-size:10px;font-family:sans-serif;text-anchor:middle;fill:#ffffff">GaImp…</text>
    </g>
    <g
       class="node"
       transform="translate(389.08663,-716.56586)"
       id="g4592">
      <circle
         class="outline"
         cx="0"
         cy="0"
         r="25"
         id="circle4594"
         style="fill:#f79767;stroke:#f36924;stroke-width:2px" />
      <text
         pointer-events="none"
         dy="1.5625"
         font-size="25"
         id="text4596"
         style="font-size:25px;font-family:sans-serif;text-anchor:middle;fill:#ffffff" />
      <text
         pointer-events="none"
         y="5"
         font-size="10px"
         id="text4598"
         style="font-size:10px;font-family:sans-serif;text-anchor:middle;fill:#ffffff">gaLayers</text>
    </g>
    <g
       class="node"
       transform="translate(-119.9464,-145.04824)"
       id="g4600">
      <circle
         class="outline"
         cx="0"
         cy="0"
         r="25"
         id="circle4602"
         style="fill:#f79767;stroke:#f36924;stroke-width:2px" />
      <text
         pointer-events="none"
         dy="1.5625"
         font-size="25"
         id="text4604"
         style="font-size:25px;font-family:sans-serif;text-anchor:middle;fill:#ffffff" />
      <text
         pointer-events="none"
         y="5"
         font-size="10px"
         id="text4606"
         style="font-size:10px;font-family:sans-serif;text-anchor:middle;fill:#ffffff">gaQuery</text>
    </g>
    <g
       class="node"
       transform="translate(297.98634,-536.28107)"
       id="g4608">
      <circle
         class="outline"
         cx="0"
         cy="0"
         r="25"
         id="circle4610"
         style="fill:#f79767;stroke:#f36924;stroke-width:2px" />
      <text
         pointer-events="none"
         dy="1.5625"
         font-size="25"
         id="text4612"
         style="font-size:25px;font-family:sans-serif;text-anchor:middle;fill:#ffffff" />
      <text
         pointer-events="none"
         y="5"
         font-size="10px"
         id="text4614"
         style="font-size:10px;font-family:sans-serif;text-anchor:middle;fill:#ffffff">GaPrint…</text>
    </g>
    <g
       class="node"
       transform="translate(48.723379,-152.24911)"
       id="g4616">
      <circle
         class="outline"
         cx="0"
         cy="0"
         r="25"
         id="circle4618"
         style="fill:#f79767;stroke:#f36924;stroke-width:2px" />
      <text
         pointer-events="none"
         dy="1.5625"
         font-size="25"
         id="text4620"
         style="font-size:25px;font-family:sans-serif;text-anchor:middle;fill:#ffffff" />
      <text
         pointer-events="none"
         y="5"
         font-size="10px"
         id="text4622"
         style="font-size:10px;font-family:sans-serif;text-anchor:middle;fill:#ffffff">gaTrans…</text>
    </g>
    <g
       class="node"
       transform="translate(487.40456,-273.86045)"
       id="g4624">
      <circle
         class="outline"
         cx="0"
         cy="0"
         r="25"
         id="circle4626"
         style="fill:#f79767;stroke:#f36924;stroke-width:2px" />
      <text
         pointer-events="none"
         dy="1.5625"
         font-size="25"
         id="text4628"
         style="font-size:25px;font-family:sans-serif;text-anchor:middle;fill:#ffffff" />
      <text
         pointer-events="none"
         y="5"
         font-size="10px"
         id="text4630"
         style="font-size:10px;font-family:sans-serif;text-anchor:middle;fill:#ffffff">GaSear…</text>
    </g>
    <g
       class="node"
       transform="translate(134.8309,-575.51323)"
       id="g4632">
      <circle
         class="outline"
         cx="0"
         cy="0"
         r="25"
         id="circle4634"
         style="fill:#f79767;stroke:#f36924;stroke-width:2px" />
      <text
         pointer-events="none"
         dy="1.5625"
         font-size="25"
         id="text4636"
         style="font-size:25px;font-family:sans-serif;text-anchor:middle;fill:#ffffff" />
      <text
         pointer-events="none"
         y="5"
         font-size="10px"
         id="text4638"
         style="font-size:10px;font-family:sans-serif;text-anchor:middle;fill:#ffffff">gaLaye…</text>
    </g>
    <g
       class="node selected"
       transform="translate(133.00619,-113.07278)"
       id="g4640">
      <circle
         class="outline"
         cx="0"
         cy="0"
         r="25"
         id="circle4642"
         style="fill:#f79767;stroke:#f36924;stroke-width:2px" />
      <text
         pointer-events="none"
         dy="1.5625"
         font-size="25"
         id="text4644"
         style="font-size:25px;font-family:sans-serif;text-anchor:middle;fill:#ffffff" />
      <text
         pointer-events="none"
         y="5"
         font-size="10px"
         id="text4646"
         style="font-size:10px;font-family:sans-serif;text-anchor:middle;fill:#ffffff">GaFeat…</text>
    </g>
    <g
       class="node"
       transform="translate(401.66803,-357.17996)"
       id="g4648">
      <circle
         class="outline"
         cx="0"
         cy="0"
         r="25"
         id="circle4650"
         style="fill:#f79767;stroke:#f36924;stroke-width:2px" />
      <text
         pointer-events="none"
         dy="1.5625"
         font-size="25"
         id="text4652"
         style="font-size:25px;font-family:sans-serif;text-anchor:middle;fill:#ffffff" />
      <text
         pointer-events="none"
         y="5"
         font-size="10px"
         id="text4654"
         style="font-size:10px;font-family:sans-serif;text-anchor:middle;fill:#ffffff">gaPrint…</text>
    </g>
    <g
       class="node"
       transform="translate(633.24721,-12.696546)"
       id="g4656">
      <circle
         class="outline"
         cx="0"
         cy="0"
         r="25"
         id="circle4658"
         style="fill:#f79767;stroke:#f36924;stroke-width:2px" />
      <text
         pointer-events="none"
         dy="1.5625"
         font-size="25"
         id="text4660"
         style="font-size:25px;font-family:sans-serif;text-anchor:middle;fill:#ffffff" />
      <text
         pointer-events="none"
         y="5"
         font-size="10px"
         id="text4662"
         style="font-size:10px;font-family:sans-serif;text-anchor:middle;fill:#ffffff">gaTooltip</text>
    </g>
  </g>
</svg>
